<svg width="58" height="66" viewBox="0 0 58 66" fill="none" xmlns="http://www.w3.org/2000/svg">
<path d="M10.04 1.22449e-05C5.73269 3.01605 4.59758 9.01269 7.6136 13.3208L23.124 35.4723L17.4833 43.5272C12.3051 40.528 5.60445 41.9387 2.10833 46.9323C-1.58284 52.2056 -0.301877 59.4711 4.97036 63.1638C10.2428 66.8549 17.5098 65.575 21.2025 60.3015C23.7361 56.683 23.9261 52.125 22.0926 48.429L29.0003 38.5632L35.9073 48.4281C34.0747 52.1241 34.2647 56.6819 36.7974 60.3006C40.4901 65.5738 47.7563 66.8539 53.0287 63.1629C58.3018 59.4702 59.5828 52.2039 55.8916 46.9315C52.3955 41.9386 45.6948 40.5281 40.5166 43.5264L34.8759 35.4715L50.3854 13.3209C53.4023 9.0128 52.2664 3.01617 47.959 0.000130562L29.0002 27.0792L10.04 1.22449e-05ZM17.7227 53.5912C17.7227 56.9279 15.0176 59.633 11.681 59.633C8.34435 59.633 5.63926 56.9278 5.63926 53.5913C5.63926 50.2538 8.34434 47.5495 11.681 47.5495C15.0176 47.5495 17.7227 50.2538 17.7227 53.5912ZM52.3619 53.5912C52.3619 56.9279 49.6568 59.633 46.3202 59.633C42.9836 59.633 40.2785 56.9279 40.2785 53.5912C40.2785 50.2538 42.9836 47.5495 46.3202 47.5495C49.6567 47.5495 52.3619 50.2538 52.3619 53.5912Z" fill="#008FDD"/>
</svg>
